<svg width="650" height="618" viewBox="0 0 650 618" fill="none" xmlns="http://www.w3.org/2000/svg">
<ellipse cx="331.283" cy="317.369" rx="318.716" ry="300.631" fill="#D4AF77"/>
<ellipse cx="318.716" cy="294.939" rx="318.716" ry="294.939" fill="#D4AF77"/>
<ellipse cx="331.982" cy="307.326" rx="305.451" ry="282.553" fill="#9D3D3D"/>
<ellipse cx="232.492" cy="146.968" rx="80.29" ry="69.299" fill="#E8CDCD"/>
<ellipse cx="504.082" cy="402.068" rx="80.29" ry="69.299" fill="#E8CDCD"/>
<ellipse cx="460.097" cy="171.071" rx="58.6466" ry="59.9252" fill="#E8CDCD"/>
<ellipse cx="212.245" cy="422.155" rx="80.29" ry="69.299" fill="#E8CDCD"/>
<ellipse cx="119.737" cy="265.479" rx="49.9194" ry="41.8472" fill="#AC4842"/>
<ellipse cx="568.663" cy="258.783" rx="49.9194" ry="41.8472" fill="#AC4842"/>
<ellipse cx="343.153" cy="501.832" rx="49.9194" ry="41.8472" fill="#AC4842"/>
<ellipse cx="245.408" cy="290.922" rx="49.9194" ry="41.8472" fill="#AC4842"/>
<ellipse cx="362.003" cy="88.7161" rx="49.9194" ry="41.8472" fill="#AC4842"/>
<ellipse cx="366.891" cy="223.297" rx="12.9162" ry="15.065" fill="#292929"/>
<ellipse cx="385.043" cy="402.068" rx="12.9162" ry="15.065" fill="#292929"/>
<ellipse cx="329.887" cy="352.521" rx="12.9162" ry="15.065" fill="#292929"/>
<ellipse cx="418.555" cy="294.939" rx="49.9194" ry="41.8472" fill="#AC4842"/>
</svg>
