<svg xmlns="http://www.w3.org/2000/svg" width="650" height="618" fill="none" viewBox="0 0 650 618"><ellipse cx="331.283" cy="317.369" fill="#D4AF77" rx="318.716" ry="300.631"/><ellipse cx="318.716" cy="294.939" fill="#D4AF77" rx="318.716" ry="294.939"/><ellipse cx="331.982" cy="307.326" fill="#9D3D3D" rx="305.451" ry="282.553"/><ellipse cx="232.492" cy="146.968" fill="#E8CDCD" rx="80.29" ry="69.299"/><ellipse cx="504.082" cy="402.068" fill="#E8CDCD" rx="80.29" ry="69.299"/><ellipse cx="460.097" cy="171.071" fill="#E8CDCD" rx="58.647" ry="59.925"/><ellipse cx="212.245" cy="422.155" fill="#E8CDCD" rx="80.29" ry="69.299"/><ellipse cx="119.737" cy="265.479" fill="#AC4842" rx="49.919" ry="41.847"/><ellipse cx="568.663" cy="258.783" fill="#AC4842" rx="49.919" ry="41.847"/><ellipse cx="343.153" cy="501.832" fill="#AC4842" rx="49.919" ry="41.847"/><ellipse cx="245.408" cy="290.922" fill="#AC4842" rx="49.919" ry="41.847"/><ellipse cx="362.003" cy="88.716" fill="#AC4842" rx="49.919" ry="41.847"/><ellipse cx="366.891" cy="223.297" fill="#292929" rx="12.916" ry="15.065"/><ellipse cx="385.043" cy="402.068" fill="#292929" rx="12.916" ry="15.065"/><ellipse cx="329.887" cy="352.521" fill="#292929" rx="12.916" ry="15.065"/><ellipse cx="418.555" cy="294.939" fill="#AC4842" rx="49.919" ry="41.847"/></svg>